<svg xmlns="http://www.w3.org/2000/svg" xml:space="preserve" width="179.341mm" height="45.3743mm" version="1.1" style="shape-rendering:geometricPrecision; text-rendering:geometricPrecision; image-rendering:optimizeQuality; fill-rule:evenodd; clip-rule:evenodd"
viewBox="0 0 16948 4288"
 xmlns:xlink="http://www.w3.org/1999/xlink">
 <defs>
  <style type="text/css">
   <![CDATA[
    .fillColor {fill:#A5D8FF}
    .str0 {stroke:#A5D8FF;stroke-width:16.6705}
    .fil10 {fill:#A5D8FF;fill-rule:nonzero}
    .fil9 {fill:none}
    .fil6 {fill:#6B6B6B}
    .fil2 {fill:#8B8989}
    .fil4 {fill:#B2A59A}
    .fil3 {fill:#C6C5C2}
    .fil5 {fill:#FCE7D7}
    .fil1 {fill:white}
   ]]>
  </style>
   <clipPath id="id0">
    <path d="M2019 3508c725,0 1313,-588 1313,-1313 0,-725 -588,-1313 -1313,-1313 -725,0 -1312,588 -1312,1313 0,725 587,1313 1312,1313z"/>
   </clipPath>
 </defs>
 <g id="Camada_x0020_1">
  <metadata id="CorelCorpID_0Corel-Layer"/>
  <path class="fillColor" d="M2022 415c981,0 1776,796 1776,1777 0,240 -47,469 -134,678l456 230c77,-50 179,-59 267,-15l931 469c131,66 184,227 118,358l0 0c-66,130 -228,183 -358,117l-932 -469c-90,-45 -143,-137 -145,-232l-452 -228c-310,520 -878,869 -1527,869 -981,0 -1777,-796 -1777,-1777 0,-981 796,-1777 1777,-1777zm0 407c757,0 1370,613 1370,1370 0,757 -613,1370 -1370,1370 -757,0 -1371,-613 -1371,-1370 0,-757 614,-1370 1371,-1370z"/>
  <path class="fil1" d="M4385 3531c99,57 301,159 430,225 130,65 188,93 224,101 35,9 48,-2 -75,-72 -123,-70 -382,-199 -517,-264 -135,-66 -146,-67 -153,-62 -7,5 -9,16 91,72z"/>
  <g id="_1851439065168">
   <path class="fil2" d="M416 3062l-138 6c-20,15 -9,-8 -5,17l-6 5 171 12c-7,-13 -15,-27 -22,-40zm404 505l0 313c2,178 -45,29 -42,257 2,90 7,90 -26,122l161 28 314 -1 1 -304 -91 -3 0 -189c-114,-63 -220,-138 -317,-223zm2937 -1960c8,-42 13,-84 15,-127l7 -47 93 -1 -3 -221 -89 -20 3 -883 88 -1 0 -306 -464 2c0,49 -2,103 0,152 4,84 27,77 -14,107 3,3 7,4 9,5l20 9c2,1 7,2 9,3 12,4 12,2 26,10l-323 16c-43,-5 -77,-2 -120,-2l-113 14c36,34 285,40 338,45 67,5 181,19 233,42 -26,128 -11,471 -10,644 0,5 0,10 0,14 127,162 228,346 295,545z"/>
   <path class="fil3" d="M245 3067l167 -12c-58,-108 -105,-222 -141,-341 -5,35 -10,70 -13,106l-94 16 1 225 80 6z"/>
   <path class="fil3" d="M3239 362c-53,-5 -302,-11 -338,-45l113 -14c43,0 77,-3 120,2 27,-64 -22,-36 7,-90 25,-46 23,-7 74,-36 52,-30 49,-98 -58,-105 28,-23 57,-15 27,-22 -16,-32 -6,-10 -14,-52l-363 2 2 288 79 27c11,45 15,149 16,271 44,25 87,51 129,78 -11,-98 -21,-208 18,-258 50,0 18,1 63,26 5,53 14,175 18,303 63,48 122,100 178,155 2,-168 5,-333 14,-503 -34,-7 -59,-16 -85,-27z"/>
   <path class="fil3" d="M431 3920c-27,-62 -16,-322 -27,-419 -15,-134 -57,-278 -10,-359l71 8 -4 147c-4,222 113,675 -30,623zm133 368l-109 -20c0,-62 18,-80 -28,-93 89,-6 104,5 170,-30 8,-58 18,-69 -37,-91 -34,-14 -76,-5 -105,3 24,-74 17,17 25,-67l167 -17 1 -85c-4,-56 -10,-304 -7,-501 -76,-88 -144,-184 -203,-285l-171 -12 6 -5 -20 -4 1 899c-104,2 -92,-9 -90,101 1,66 -1,131 1,203l399 4z"/>
   <path class="fil4" d="M245 3067l8 14 20 4 -6 5 6 -5c-4,-25 -15,-2 5,-17l138 -6c-1,-2 -3,-5 -4,-7l-167 12z"/>
   <path class="fil4" d="M564 4288l349 -1 -161 -28c33,-32 28,-32 26,-122 -3,-228 44,-79 42,-257l0 -313c-64,-56 -124,-116 -179,-180 -3,197 3,445 7,501l-1 85 -167 17c-8,84 -1,-7 -25,67 29,-8 71,-17 105,-3 55,22 45,33 37,91 -66,35 -81,24 -170,30 46,13 28,31 28,93l109 20z"/>
   <path class="fil4" d="M3462 1062c0,-4 0,-9 0,-14 -1,-173 -16,-516 10,-644 -52,-23 -166,-37 -233,-42 26,11 51,20 85,27 -9,170 -12,335 -14,503 54,53 105,110 152,170z"/>
   <path class="fil4" d="M3134 305l323 -16c-14,-8 -14,-6 -26,-10 -2,-1 -7,-2 -9,-3l-20 -9c-2,-1 -6,-2 -9,-5 41,-30 18,-23 14,-107 -2,-49 0,-103 0,-152l-237 -3c8,42 -2,20 14,52 30,7 1,-1 -27,22 107,7 110,75 58,105 -51,29 -49,-10 -74,36 -29,54 20,26 -7,90z"/>
   <path class="fil5" d="M3132 737c-4,-128 -13,-250 -18,-303 -45,-25 -13,-26 -63,-26 -39,50 -29,160 -18,258 34,23 67,46 99,71z"/>
   <path class="fil5" d="M431 3920c143,52 26,-401 30,-623l4 -147 -71 -8c-47,81 -5,225 10,359 11,97 0,357 27,419z"/>
   <path class="fil3" d="M3772 1480l15 -35c18,0 36,2 53,-1 22,-3 26,-9 32,-12l-93 1 -7 47z"/>
   <path class="fil6" d="M0 1346c0,2 11,1 14,-4 8,-16 -13,-6 -14,4z"/>
  </g>
  <g>
  </g>
  <g style="clip-path:url(#id0)">
   <g>
    <g id="_1851238831280">
     <path class="fil2" d="M2956 2094l-69 -553 -29 7 -5 34c12,64 11,530 -27,569 -18,18 -149,32 -209,3 -33,-15 14,68 -37,-19l-24 114c-148,27 -640,-1 -863,-1l-45 -213 -37 -448c-89,-42 -23,-10 -46,9l-13 619c-41,18 29,5 -37,-4l-238 -13 -13 183c-45,35 -13,-10 -80,66 -3,2 -5,6 -8,9 -2,2 -5,6 -8,9l-238 230c-38,38 -55,43 -92,76 -71,63 -128,167 -222,194 -45,12 -23,-5 -71,18 0,74 -19,214 16,258l-663 28c-24,19 -10,-10 -6,20l-7 7 499 33 182 37 1 904c2,219 -56,36 -51,317 1,111 7,111 -32,150l198 36 388 -2 1 -375 -113 -4 1 -1124 111 -18 0 -267c-56,-27 -51,4 -96,-33 31,-159 117,-241 278,-275 50,122 -56,96 310,104l0 -122 446 -1 28 -165 12 19 25 -168 3 213 23 23 0 78 456 -1 17 119 275 -2 15 -113c206,-32 358,-78 526,-162 402,-201 799,-670 820,-1188l9 -57 115 -1 -4 -273 -110 -24 4 -1089 108 -1 0 -378 -572 2c0,61 -2,128 0,188 5,103 34,95 -18,132 4,3 10,5 12,6l24 11c3,1 9,3 12,4 15,5 14,2 32,12l-399 20c-53,-6 -94,-3 -148,-2l-139 16c45,42 352,50 416,56 83,7 224,24 288,51 -32,158 -13,581 -12,796 0,116 24,175 -68,200 0,205 -16,225 34,269l-668 13c3,59 -68,31 148,55 191,21 358,72 500,94 156,42 221,104 222,103 1,-3 6,4 10,5l-166 97c-137,58 -21,5 -93,85l-199 156c-24,21 -27,29 -35,42l-379 279c-68,37 -27,-21 -81,81 -2,4 -15,29 -19,33 -55,-47 -71,-116 -76,-196z"/>
     <path class="fil3" d="M546 2040c107,-54 120,46 20,139 -333,310 -174,656 -364,644 -95,-7 -122,-107 -104,-212 20,-122 33,-163 87,-245 92,-141 212,-251 361,-326zm168 -93c73,-103 184,-244 350,-167 -2,101 -77,117 -157,154 -106,50 -109,77 -193,13zm-857 1320l265 -19 -85 -87c103,-6 269,9 259,-73 -32,-60 14,-37 -77,-54 -52,-11 -84,16 -201,-18l-27 -7c114,-64 322,-5 436,-83 222,-151 193,-194 346,-305l193 -191c48,-42 85,-86 141,-126l59 -44c2,-2 6,-6 8,-8l28 -22c1,-1 2,46 10,0 0,-2 3,2 5,1 3,-46 3,-24 13,-55 2,-5 8,-19 10,-24 32,-90 31,-196 33,-288 35,-16 -18,-18 18,11 86,66 -51,-14 23,20 1,-17 -1,-31 4,-46 14,-50 -5,-7 21,-28 -16,57 -4,131 15,175l67 0c58,-96 13,-184 40,-275 51,7 16,41 65,26 41,-123 18,-45 33,-187l-7 -95 -284 -3 -7 109c-233,34 -371,60 -551,151 -448,225 -787,676 -836,1241l-116 20 1 277 98 7z"/>
     <path class="fil3" d="M3550 -69c-64,-6 -371,-14 -416,-56l139 -16c54,-1 95,-4 148,2 33,-79 -26,-44 9,-112 31,-57 29,-9 91,-44 65,-37 61,-121 -71,-129 35,-29 70,-19 33,-28 -19,-39 -7,-12 -17,-64l-448 3 2 355 98 33c38,155 12,859 12,1070l-44 12c-57,19 -60,6 -67,38l0 234c58,90 76,-46 82,80 4,61 -62,190 -214,232l69 553c24,-39 15,-41 16,-99l28 23c22,10 8,6 37,10 15,-56 35,-65 68,-98 112,-113 191,-140 221,-164l349 -271c10,-11 8,-7 19,-27 35,-63 -14,18 14,-37l113 14c-72,-26 -21,-9 -49,-36 -142,-22 -309,-73 -500,-94 -216,-24 -145,4 -148,-55l381 -26c-65,-6 -51,3 -99,-21l13 -45c2,-28 150,-5 138,-90 -6,-45 -43,-34 -90,-65l-47 -35c4,0 47,3 52,2l165 -29c0,-342 2,-656 19,-986 -43,-9 -74,-20 -106,-34zm-241 529c0,-127 -61,-381 10,-472 62,0 23,1 77,32 15,152 57,774 -12,866l-55 -1c-64,-85 -20,-252 -20,-425z"/>
     <path class="fil3" d="M87 4320c-32,-77 -19,-398 -33,-517 -19,-165 -71,-343 -12,-444l88 11 -6 181c-5,275 139,833 -37,769zm164 454l-134 -25c0,-77 22,-99 -34,-114 109,-8 127,6 209,-38 9,-72 22,-85 -45,-112 -42,-17 -95,-7 -130,4 30,-92 21,21 31,-82l206 -22 1 -104c-8,-114 -22,-863 13,-931l16 -21 -499 -33 7 -7 -24 -4 1 1109c-128,2 -114,-11 -111,125 1,80 -1,161 1,250l492 5z"/>
     <path class="fil3" d="M1605 1564l6 23 37 448c3,-3 9,-12 11,-8 2,4 15,-10 23,-13 67,-25 779,-8 873,-12 14,-227 -5,-219 28,-219 16,1 30,-33 39,24 13,84 -18,100 23,186 142,33 87,-81 110,-290l18 55c47,-32 -37,-21 30,15 41,23 -21,25 27,7l23 -198 5 -34 -6 -84 -280 1 -34 101 -933 -2z"/>
     <path class="fil4" d="M-143 3267l11 18 24 4 -7 7 7 -7c-4,-30 -18,-1 6,-20l663 -28c-35,-44 -16,-184 -16,-258 48,-23 26,-6 71,-18 94,-27 151,-131 222,-194 37,-33 54,-38 92,-76l238 -230c3,-3 6,-7 8,-9 3,-3 5,-7 8,-9 67,-76 35,-31 80,-66l13 -183 238 13c66,9 -4,22 37,4l13 -619c23,-19 -43,-51 46,-9l-6 -23 -46 -4c-15,142 8,64 -33,187 -49,15 -14,-19 -65,-26 -27,91 18,179 -40,275l-67 0c-19,-44 -31,-118 -15,-175 -26,21 -7,-22 -21,28 -5,15 -3,29 -4,46 -74,-34 63,46 -23,-20 -36,-29 17,-27 -18,-11 -2,92 -1,198 -33,288 -2,5 -8,19 -10,24 -10,31 -10,9 -13,55 -2,1 -5,-3 -5,-1 -8,46 -9,-1 -10,0l-28 22c-2,2 -6,6 -8,8l-59 44c-56,40 -93,84 -141,126l-193 191c-153,111 -124,154 -346,305 -114,78 -322,19 -436,83l27 7c117,34 149,7 201,18 91,17 45,-6 77,54 10,82 -156,67 -259,73l85 87 -265 19z"/>
     <path class="fil4" d="M251 4774l431 -1 -198 -36c39,-39 33,-39 32,-150 -5,-281 53,-98 51,-317l-1 -904 -182 -37 -16 21c-35,68 -21,817 -13,931l-1 104 -206 22c-10,103 -1,-10 -31,82 35,-11 88,-21 130,-4 67,27 54,40 45,112 -82,44 -100,30 -209,38 56,15 34,37 34,114l134 25z"/>
     <path class="fil4" d="M1648 2035l45 213c223,0 715,28 863,1l24 -114c51,87 4,4 37,19 60,29 191,15 209,-3 38,-39 39,-505 27,-569l-23 198c-48,18 14,16 -27,-7 -67,-36 17,-47 -30,-15l-18 -55c-23,209 32,323 -110,290 -41,-86 -10,-102 -23,-186 -9,-57 -23,-23 -39,-24 -33,0 -14,-8 -28,219 -94,4 -806,-13 -873,12 -8,3 -21,17 -23,13 -2,-4 -8,5 -11,8z"/>
     <path class="fil4" d="M3124 1260l668 -13c-50,-44 -34,-64 -34,-269 92,-25 68,-84 68,-200 -1,-215 -20,-638 12,-796 -64,-27 -205,-44 -288,-51 32,14 63,25 106,34 -17,330 -19,644 -19,986l-165 29c-5,1 -48,-2 -52,-2l47 35c47,31 84,20 90,65 12,85 -136,62 -138,90l-13 45c48,24 34,15 99,21l-381 26z"/>
     <path class="fil4" d="M2956 2094c5,80 21,149 76,196 4,-4 17,-29 19,-33 54,-102 13,-44 81,-81l379 -279c8,-13 11,-21 35,-42l199 -156c72,-80 -44,-27 93,-85l166 -97c-4,-1 -9,-8 -10,-5 -1,1 -66,-61 -222,-103 28,27 -23,10 49,36l-113 -14c-28,55 21,-26 -14,37 -11,20 -9,16 -19,27l-349 271c-30,24 -109,51 -221,164 -33,33 -53,42 -68,98 -29,-4 -15,0 -37,-10l-28 -23c-1,58 8,60 -16,99z"/>
     <path class="fil5" d="M546 2040c-149,75 -269,185 -361,326 -54,82 -67,123 -87,245 -18,105 9,205 104,212 190,12 31,-334 364,-644 100,-93 87,-193 -20,-139z"/>
     <path class="fil4" d="M3421 -139l399 -20c-18,-10 -17,-7 -32,-12 -3,-1 -9,-3 -12,-4l-24 -11c-2,-1 -8,-3 -12,-6 52,-37 23,-29 18,-132 -2,-60 0,-127 0,-188l-292 -4c10,52 -2,25 17,64 37,9 2,-1 -33,28 132,8 136,92 71,129 -62,35 -60,-13 -91,44 -35,68 24,33 -9,112z"/>
     <path class="fil5" d="M3309 460c0,173 -44,340 20,425l55 1c69,-92 27,-714 12,-866 -54,-31 -15,-32 -77,-32 -71,91 -10,345 -10,472z"/>
     <path class="fil5" d="M87 4320c176,64 32,-494 37,-769l6 -181 -88 -11c-59,101 -7,279 12,444 14,119 1,440 33,517z"/>
     <path class="fil5" d="M714 1947c84,64 87,37 193,-13 80,-37 155,-53 157,-154 -166,-77 -277,64 -350,167z"/>
     <path class="fil3" d="M4208 1309l19 -43c22,1 44,3 66,0 26,-4 32,-12 39,-15l-115 1 -9 57z"/>
     <path class="fil6" d="M-444 1145c-1,2 13,1 17,-6 9,-19 -16,-7 -17,6z"/>
    </g>
    <g id="_1851238829616">
     <path class="fillColor" d="M2095 3003c0,-2 2,-2 3,-3l13 -8c5,-3 11,-8 15,-12l2 -4c7,-8 9,-16 13,-26 1,-2 1,-3 3,-4 1,1 1,1 1,3 0,13 -8,27 -17,36l-4 4c-6,6 -12,10 -20,13 -5,2 -6,2 -9,1zm-29 -229c-1,-2 -2,-3 -2,-5l-4 -11c-4,-12 -7,-23 -10,-35 0,-1 -1,-11 -2,-12 0,15 -3,35 -5,51 -4,29 -11,56 -20,84 -1,4 -2,7 -4,11l-3 11c-3,7 -6,14 -9,21 -2,4 -4,7 -5,10l-5 10c-2,4 -3,7 -4,11 -5,19 -2,38 6,56 1,1 2,2 2,4 2,3 4,7 6,9 6,8 7,7 11,12 4,3 13,10 18,12 7,3 14,5 22,7 1,0 2,0 3,0 20,3 38,-2 54,-11 1,-1 1,-1 2,-2l5 -3c1,-1 1,-1 2,-2 0,0 1,-1 2,-1 4,-3 12,-13 14,-18 1,0 1,-1 1,-1 3,-4 6,-10 7,-15 2,-7 4,-14 5,-21 0,-7 0,-14 -1,-21 -1,-4 -2,-8 -3,-11 -1,-2 -2,-4 -2,-6 -7,-15 -11,-17 -17,-25l-9 -12c0,0 0,0 0,0l-5 -7c-1,-1 -2,-3 -3,-4 -3,-5 -6,-9 -10,-14 -4,-7 -8,-15 -13,-22l-3 -5c-4,-7 -14,-26 -16,-34l-1 -1c-1,-2 -1,-3 -2,-5l-2 -5z"/>
     <path class="fillColor" d="M2245 2861c1,-2 2,-3 3,-5 10,-12 7,-19 8,-29l1 0c1,3 2,2 2,9 0,5 -2,10 -4,15 -1,1 -1,2 -2,4 -2,2 -4,5 -8,6zm-167 -159c-1,-1 -1,-1 -2,-2 0,2 2,7 3,9 2,3 3,6 4,9l8 18c4,12 17,39 24,51 11,22 26,48 43,66 3,4 6,7 10,11 1,0 1,0 2,1 3,3 4,3 9,8l7 4 12 4c3,1 5,2 8,2 1,0 2,0 3,0 8,1 13,0 21,-3 6,-2 11,-5 15,-9 1,0 1,0 1,-1 0,0 1,0 1,0l8 -9c1,-2 2,-3 2,-4 2,-3 5,-11 6,-16 2,-13 1,-21 -5,-34 -2,-6 -6,-10 -10,-14l-3 -3c-1,0 0,0 -1,-1l-5 -3c-2,-1 -2,-1 -4,-2 -2,-1 -5,-3 -8,-3l-16 -5c-3,0 -6,-1 -9,-2 -12,-4 -44,-15 -55,-21l-7 -3c-1,-1 -2,-2 -4,-2 -4,-2 -9,-6 -14,-8 -5,-3 -12,-8 -17,-11 -2,-2 -4,-4 -6,-5 -1,-1 -1,-1 -1,-1 -1,0 -1,0 -1,0l-1 -2c-2,-1 -2,-2 -4,-2 0,-1 0,-1 0,-1 0,0 0,0 0,0l-10 -10c0,0 0,-1 -1,-1 -1,-1 -2,-2 -3,-4l0 -1z"/>
     <path class="fillColor" d="M1906 2886c1,1 0,0 1,0 19,7 25,0 31,2 -3,5 -16,5 -21,5 -7,-1 -14,-4 -19,-8 -3,-2 -3,-3 -4,-4 2,-1 3,0 4,1l8 4zm123 -174c-10,20 -27,39 -46,52 -2,1 -4,3 -6,4 -2,1 -5,3 -7,4 0,0 -2,1 -2,1l-12 5 -14 5c-3,1 -5,1 -7,2l-7 2c-7,1 -8,0 -12,1 -12,1 -22,5 -31,13 -4,4 -8,8 -11,13 -13,22 -10,47 6,66l8 7c5,3 9,6 15,8 11,3 14,3 23,2l8 -1 13 -5c0,0 0,0 0,0 0,0 0,0 1,0l4 -3c0,0 -1,1 0,0l5 -4 16 -18c3,-5 7,-11 10,-16 4,-6 12,-22 15,-30 0,-1 1,-2 2,-4 3,-7 7,-19 10,-26 4,-13 8,-25 11,-38l1 -2c0,-1 0,-3 0,-4l1 -1c2,-7 5,-22 6,-29 0,-2 1,-2 0,-4z"/>
     <path class="fillColor" d="M2095 3003c3,1 4,1 9,-1 8,-3 14,-7 20,-13l4 -4c9,-9 17,-23 17,-36 0,-2 0,-2 -1,-3 -2,1 -2,2 -3,4 -4,10 -6,18 -13,26l-2 4c-4,4 -10,9 -15,12l-13 8c-1,1 -3,1 -3,3z"/>
     <path class="fillColor" d="M1906 2886l-8 -4c-1,-1 -2,-2 -4,-1 1,1 1,2 4,4 5,4 12,7 19,8 5,0 18,0 21,-5 -6,-2 -12,5 -31,-2 -1,0 0,1 -1,0z"/>
     <path class="fillColor" d="M2245 2861c4,-1 6,-4 8,-6 1,-2 1,-3 2,-4 2,-5 4,-10 4,-15 0,-7 -1,-6 -2,-9l-1 0c-1,10 2,17 -8,29 -1,2 -2,3 -3,5z"/>
    </g>
   </g>
  </g>
  <path class="fil9" d="M2019 3508c725,0 1313,-588 1313,-1313 0,-725 -588,-1313 -1313,-1313 -725,0 -1312,588 -1312,1313 0,725 587,1313 1312,1313z"/>
  <g>
   <path class="fil10" d="M4419 1126c3,42 17,77 41,103 24,26 62,39 113,39 49,0 85,-9 107,-28 22,-19 37,-42 46,-69 5,-14 10,-23 15,-28 5,-5 14,-7 27,-7l160 0c8,0 14,2 19,8 6,5 8,11 8,19 0,54 -18,105 -52,151 -34,46 -80,83 -138,110 -57,27 -122,40 -192,40 -76,0 -142,-15 -198,-45 -57,-29 -100,-69 -131,-120 -31,-50 -49,-106 -52,-167 -1,-39 -2,-71 -2,-97 0,-30 1,-70 2,-121 3,-61 19,-117 50,-167 31,-50 75,-90 132,-120 57,-30 123,-45 199,-45 70,0 135,14 192,41 58,26 104,63 138,109 34,46 52,97 52,151 0,8 -2,14 -8,19 -5,6 -11,8 -19,8l-160 0c-13,0 -22,-2 -27,-7 -5,-5 -10,-14 -15,-28 -9,-27 -24,-50 -46,-69 -22,-19 -58,-28 -107,-28 -51,0 -89,13 -113,39 -24,26 -38,61 -41,103 -2,28 -3,62 -3,103 0,39 1,74 3,103zm1417 280c3,9 5,15 5,19 0,7 -3,14 -8,19 -5,5 -12,8 -19,8l-154 0c-14,0 -25,-3 -33,-9 -8,-6 -13,-14 -15,-22l-34 -101 -326 0 -35 101c-2,8 -7,16 -15,22 -8,6 -18,9 -32,9l-155 0c-7,0 -13,-3 -19,-8 -5,-5 -8,-12 -8,-19 0,-4 2,-10 5,-19l267 -771c4,-12 11,-21 20,-29 9,-8 21,-12 35,-12l199 0c15,0 26,4 35,12 9,8 16,17 20,29l267 771zm-322 -276l-99 -294 -100 294 199 0zm609 -4c3,42 17,77 41,103 24,26 62,39 113,39 49,0 85,-9 107,-28 22,-19 37,-42 46,-69 5,-14 10,-23 15,-28 5,-5 14,-7 27,-7l160 0c8,0 14,2 19,8 6,5 8,11 8,19 -1,54 -18,105 -51,151 -34,46 -79,83 -137,110 -57,27 -121,40 -191,40l-26 54c13,-8 28,-12 45,-12 30,0 53,10 69,30 16,21 24,46 24,78 0,30 -11,55 -33,76 -23,21 -52,31 -88,31 -22,0 -44,-5 -67,-16 -22,-11 -33,-22 -33,-34 0,-5 2,-9 6,-12l22 -20c6,-6 12,-10 18,-10 3,0 10,3 20,9 10,6 22,9 34,9 27,0 40,-11 40,-33 0,-23 -13,-34 -40,-34 -5,0 -13,2 -24,5 -11,3 -19,4 -24,4 -7,0 -13,-2 -18,-7l-22 -26c-3,-3 -5,-6 -7,-9 -2,-3 -3,-6 -3,-9 0,-5 2,-13 7,-22l27 -57c-62,-9 -116,-29 -162,-60 -46,-31 -82,-69 -107,-116 -26,-46 -39,-96 -42,-151 -2,-39 -2,-71 -2,-97 0,-30 0,-70 2,-121 3,-61 19,-117 50,-167 31,-50 75,-90 132,-120 57,-30 123,-45 199,-45 70,0 134,14 192,41 58,26 104,63 138,109 34,46 51,97 52,151 0,8 -2,14 -8,19 -5,6 -11,8 -19,8l-160 0c-13,0 -22,-2 -27,-7 -5,-5 -10,-14 -15,-28 -9,-27 -24,-50 -46,-69 -22,-19 -58,-28 -107,-28 -51,0 -89,13 -113,39 -24,26 -38,61 -41,103 -2,28 -3,62 -3,103 0,39 1,74 3,103zm1407 280c3,9 5,15 5,19 0,7 -3,14 -8,19 -5,5 -11,8 -19,8l-154 0c-14,0 -25,-3 -33,-9 -7,-6 -13,-14 -15,-22l-34 -101 -326 0 -34 101c-3,8 -8,16 -16,22 -7,6 -18,9 -32,9l-155 0c-7,0 -13,-3 -18,-8 -6,-5 -8,-12 -8,-19 0,-4 1,-10 4,-19l267 -771c5,-12 11,-21 20,-29 9,-8 21,-12 36,-12l198 0c15,0 27,4 36,12 9,8 15,17 19,29l267 771zm-322 -276l-99 -294 -99 294 198 0zm850 322c-32,0 -53,-17 -65,-49l-250 -766c-2,-7 -3,-12 -3,-16 0,-7 2,-13 8,-19 5,-5 11,-8 19,-8l154 0c14,0 25,3 32,10 8,6 13,13 16,21l170 539 170 -539c3,-8 8,-15 16,-21 7,-7 18,-10 32,-10l154 0c8,0 14,3 19,8 6,6 8,12 8,19 0,4 -1,9 -3,16l-250 766c-12,32 -33,49 -65,49l-162 0zm1368 -46c4,9 5,15 5,19 0,7 -2,14 -8,19 -5,5 -11,8 -19,8l-154 0c-14,0 -25,-3 -32,-9 -8,-6 -13,-14 -16,-22l-34 -101 -326 0 -34 101c-3,8 -8,16 -15,22 -8,6 -19,9 -33,9l-154 0c-8,0 -14,-3 -19,-8 -6,-5 -8,-12 -8,-19 0,-4 1,-10 5,-19l267 -771c4,-12 10,-21 19,-29 9,-8 21,-12 36,-12l198 0c15,0 27,4 36,12 9,8 15,17 19,29l267 771zm-322 -276l-99 -294 -99 294 198 0zm1078 126c9,0 17,3 24,10 6,6 9,14 9,23l0 130c0,9 -3,16 -9,23 -7,7 -15,10 -24,10l-656 0c-9,0 -17,-3 -24,-10 -6,-7 -9,-14 -9,-23l0 -124c0,-10 1,-18 4,-23 4,-6 8,-12 14,-20l392 -462 -365 0c-9,0 -17,-3 -23,-9 -7,-7 -10,-15 -10,-24l0 -130c0,-9 3,-16 10,-23 6,-6 14,-10 23,-10l632 0c9,0 17,4 23,10 7,7 10,14 10,23l0 124c0,16 -5,29 -16,41l-392 464 387 0zm942 150c3,9 5,15 5,19 0,7 -3,14 -8,19 -5,5 -11,8 -19,8l-154 0c-14,0 -25,-3 -33,-9 -7,-6 -12,-14 -15,-22l-34 -101 -326 0 -34 101c-3,8 -8,16 -16,22 -7,6 -18,9 -32,9l-155 0c-7,0 -13,-3 -18,-8 -6,-5 -8,-12 -8,-19 0,-4 1,-10 4,-19l267 -771c5,-12 11,-21 20,-29 9,-8 21,-12 36,-12l198 0c15,0 27,4 36,12 9,8 15,17 19,29l267 771zm-322 -276l-99 -294 -99 294 198 0zm653 -117l0 406c0,9 -3,16 -10,23 -6,7 -14,10 -23,10l-161 0c-9,0 -16,-3 -23,-10 -6,-7 -10,-14 -10,-23l0 -792c0,-9 4,-16 10,-23 7,-6 14,-10 23,-10l143 0c22,0 40,11 52,33l199 340 198 -340c12,-22 30,-33 53,-33l142 0c9,0 17,4 23,10 7,7 10,14 10,23l0 792c0,9 -3,16 -10,23 -6,7 -14,10 -23,10l-161 0c-9,0 -16,-3 -23,-10 -6,-7 -10,-14 -10,-23l0 -406 -115 202c-6,9 -12,17 -19,22 -7,6 -16,9 -26,9l-79 0c-10,0 -19,-3 -26,-9 -7,-5 -13,-13 -19,-22l-115 -202zm1024 106l350 0c9,0 17,-4 24,-10 6,-7 9,-14 9,-23l0 -130c0,-9 -3,-17 -9,-24 -7,-6 -15,-9 -24,-9l-350 0 0 -133 377 0c9,0 17,-3 24,-9 6,-7 9,-15 9,-24l0 -130c0,-9 -3,-16 -9,-23 -7,-6 -15,-10 -24,-10l-571 0c-9,0 -16,4 -23,10 -6,7 -10,14 -10,23l0 792c0,9 4,16 10,23 7,7 14,10 23,10l581 0c9,0 17,-3 23,-10 7,-7 10,-14 10,-23l0 -130c0,-9 -3,-17 -10,-23 -6,-7 -14,-10 -23,-10l-387 0 0 -137zm1118 333c-12,0 -22,-3 -31,-9 -9,-6 -16,-13 -19,-19l-280 -419 0 414c0,9 -4,16 -10,23 -7,7 -14,10 -23,10l-161 0c-9,0 -17,-3 -23,-10 -7,-7 -10,-14 -10,-23l0 -792c0,-9 3,-16 10,-23 6,-6 14,-10 23,-10l128 0c12,0 22,3 31,10 9,6 15,12 19,19l280 418 0 -414c0,-9 4,-16 10,-23 7,-6 14,-10 23,-10l161 0c9,0 17,4 23,10 7,7 10,14 10,23l0 792c0,9 -3,16 -10,23 -6,7 -14,10 -23,10l-128 0zm947 -858c9,0 17,4 24,10 6,7 9,14 9,23l0 130c0,9 -3,17 -9,24 -7,6 -15,9 -24,9l-215 0 0 629c0,9 -4,16 -10,23 -7,7 -14,10 -23,10l-161 0c-9,0 -17,-3 -23,-10 -7,-7 -10,-14 -10,-23l0 -629 -216 0c-8,0 -16,-3 -23,-9 -6,-7 -10,-15 -10,-24l0 -130c0,-9 4,-16 10,-23 7,-6 15,-10 23,-10l658 0zm498 -12c77,0 144,15 201,44 56,30 99,69 130,120 31,50 48,106 51,168 1,23 2,60 2,110 0,50 -1,86 -2,108 -3,62 -20,118 -51,169 -31,50 -74,90 -130,119 -57,29 -124,44 -201,44 -78,0 -145,-15 -201,-44 -57,-29 -100,-69 -131,-119 -30,-51 -47,-107 -51,-169 -1,-44 -2,-80 -2,-108 0,-27 1,-64 2,-110 4,-62 21,-118 51,-168 31,-51 74,-90 131,-120 56,-29 123,-44 201,-44zm155 338c-4,-43 -19,-78 -45,-103 -25,-26 -62,-39 -110,-39 -49,0 -86,13 -111,39 -26,25 -41,60 -45,103 -2,27 -4,61 -4,102 0,40 2,75 4,104 4,43 19,78 45,103 25,26 62,39 111,39 48,0 85,-13 110,-39 26,-25 41,-60 45,-103 3,-29 4,-64 4,-104 0,-41 -1,-75 -4,-102zm1049 -97c0,8 -3,14 -8,19 -6,6 -11,8 -18,8l-160 0c-12,0 -21,-1 -27,-4 -7,-3 -14,-8 -22,-15 -2,-2 -7,-7 -16,-17 -9,-9 -23,-18 -43,-25 -19,-7 -41,-11 -66,-11 -36,0 -64,5 -87,14 -22,10 -33,26 -33,49 0,16 6,29 20,38 14,10 36,18 65,25 29,8 79,19 151,33 92,19 160,49 203,89 44,40 65,97 65,171 0,54 -16,101 -48,142 -32,40 -77,71 -135,93 -57,21 -123,32 -195,32 -71,0 -134,-12 -191,-37 -58,-24 -102,-56 -135,-95 -33,-39 -50,-80 -52,-121 0,-8 3,-14 8,-19 6,-6 12,-8 18,-8l161 0c18,0 33,5 46,17 3,2 9,9 20,21 10,12 27,23 48,32 22,9 47,14 77,14 101,0 152,-22 152,-65 0,-14 -8,-25 -22,-35 -14,-9 -34,-17 -60,-24 -27,-6 -68,-16 -125,-28l-56 -11c-83,-18 -144,-48 -183,-90 -39,-42 -59,-98 -59,-168 0,-48 14,-92 43,-132 28,-40 69,-73 122,-97 52,-24 113,-36 182,-36 66,0 126,13 181,37 55,25 98,57 129,94 32,38 48,74 50,110z"/>
   <path class="fil10" d="M4894 2149c1,42 2,69 2,80 0,12 -1,38 -2,78 -2,61 -18,115 -47,161 -30,47 -70,84 -121,110 -51,26 -110,39 -178,39l-300 0c-8,0 -15,-2 -21,-8 -6,-6 -9,-13 -9,-22l0 -718c0,-8 3,-15 9,-21 6,-6 13,-9 21,-9l294 0c68,0 128,13 180,40 52,26 93,63 124,110 30,47 46,100 48,160zm-471 -132l0 423 119 0c94,0 142,-43 146,-128 2,-43 2,-71 2,-85 0,-15 0,-42 -2,-82 -2,-42 -16,-74 -42,-96 -25,-21 -62,-32 -109,-32l-114 0zm1432 -189c71,0 131,13 182,40 52,27 91,63 119,108 28,46 43,97 46,153 2,21 2,54 2,100 0,46 0,78 -2,98 -3,57 -18,108 -46,153 -28,46 -67,82 -119,109 -51,26 -111,40 -182,40 -70,0 -131,-14 -182,-40 -51,-27 -91,-63 -119,-109 -27,-45 -43,-96 -46,-153 -1,-40 -2,-72 -2,-98 0,-25 1,-58 2,-100 3,-56 19,-107 46,-153 28,-45 68,-81 119,-108 51,-27 112,-40 182,-40zm141 307c-3,-39 -17,-71 -40,-94 -24,-23 -57,-35 -101,-35 -44,0 -77,12 -101,35 -23,23 -36,55 -40,94 -2,24 -3,55 -3,92 0,36 1,68 3,95 4,39 17,70 40,94 24,23 57,35 101,35 44,0 77,-12 101,-35 23,-24 37,-55 40,-94 3,-27 4,-59 4,-95 0,-37 -1,-68 -4,-92zm878 482c-8,0 -15,-2 -21,-8 -6,-6 -9,-13 -9,-22l0 -718c0,-8 3,-15 9,-21 6,-6 13,-9 21,-9l146 0c8,0 15,3 21,9 6,6 9,13 9,21l0 718c0,9 -3,16 -9,22 -6,6 -13,8 -21,8l-146 0zm1460 -570c0,7 -3,12 -8,17 -4,5 -10,7 -16,7l-145 0c-11,0 -19,-1 -25,-3 -6,-3 -13,-8 -20,-14 -1,-2 -6,-7 -14,-15 -9,-9 -21,-16 -39,-23 -17,-7 -37,-10 -60,-10 -32,0 -58,4 -79,13 -20,8 -30,23 -30,44 0,14 6,26 19,35 12,8 32,16 58,22 26,7 72,17 137,30 84,17 146,44 185,80 39,37 59,89 59,156 0,49 -15,92 -44,129 -29,36 -70,65 -122,84 -53,20 -112,30 -178,30 -64,0 -121,-12 -173,-34 -52,-22 -93,-51 -123,-86 -29,-36 -45,-73 -46,-111 0,-6 2,-12 7,-17 5,-5 10,-7 16,-7l146 0c16,0 30,5 42,16 2,2 8,8 18,19 9,11 24,20 44,29 19,8 43,13 69,13 92,0 138,-20 138,-59 0,-13 -6,-23 -19,-32 -13,-8 -32,-16 -55,-22 -24,-6 -62,-14 -114,-25l-50 -10c-75,-17 -131,-44 -167,-82 -35,-38 -53,-89 -53,-153 0,-43 13,-83 39,-119 26,-37 63,-66 111,-88 47,-22 102,-33 165,-33 60,0 115,11 164,34 50,22 89,51 118,85 28,34 43,67 45,100zm1147 570c-9,0 -16,-2 -22,-8 -6,-6 -8,-13 -8,-22l0 -718c0,-8 2,-15 8,-21 6,-6 13,-9 22,-9l145 0c8,0 15,3 21,9 6,6 9,13 9,21l0 718c0,9 -3,16 -9,22 -6,6 -13,8 -21,8l-145 0zm1174 -778c100,0 177,21 232,64 54,43 82,106 82,191 0,107 -44,181 -132,222l137 265c3,4 4,8 4,12 0,7 -3,12 -7,17 -5,5 -11,7 -18,7l-151 0c-13,0 -23,-2 -30,-8 -7,-5 -12,-13 -17,-22l-123 -238 -102 0 0 238c0,9 -3,16 -9,22 -6,6 -13,8 -21,8l-146 0c-8,0 -15,-2 -21,-8 -6,-6 -9,-13 -9,-22l0 -718c0,-8 3,-15 9,-21 6,-6 13,-9 21,-9l301 0zm0 337c72,0 108,-27 108,-82 0,-55 -36,-83 -108,-83l-125 0 0 165 125 0zm1159 43l0 368c0,9 -3,16 -8,22 -6,6 -13,8 -22,8l-145 0c-8,0 -15,-2 -21,-8 -6,-6 -9,-13 -9,-22l0 -718c0,-8 3,-15 9,-21 6,-6 13,-9 21,-9l129 0c20,0 36,10 48,30l180 308 180 -308c11,-20 27,-30 48,-30l129 0c8,0 15,3 21,9 6,6 9,13 9,21l0 718c0,9 -3,16 -9,22 -6,6 -13,8 -21,8l-146 0c-8,0 -15,-2 -21,-8 -6,-6 -9,-13 -9,-22l0 -368 -105 184c-5,8 -10,15 -17,20 -6,5 -14,8 -24,8l-71 0c-10,0 -17,-3 -24,-8 -6,-5 -12,-12 -17,-20l-105 -184zm1921 357c3,8 5,13 5,17 0,7 -3,12 -7,17 -5,5 -11,7 -18,7l-140 0c-12,0 -22,-2 -29,-8 -7,-5 -12,-12 -14,-19l-31 -93 -296 0 -31 93c-2,7 -7,14 -14,19 -7,6 -17,8 -30,8l-140 0c-6,0 -12,-2 -17,-7 -5,-5 -7,-10 -7,-17 0,-4 1,-9 4,-17l243 -700c3,-11 9,-19 18,-26 8,-7 18,-11 32,-11l180 0c13,0 24,4 32,11 8,7 14,15 18,26l242 700zm-292 -251l-90 -267 -90 267 180 0zm-151 -586c-9,0 -16,2 -20,6 -5,4 -9,11 -14,20 -3,5 -7,10 -10,13 -3,4 -6,5 -11,5l-84 0c-7,0 -12,-2 -16,-6 -4,-4 -5,-9 -5,-15 0,-23 4,-47 13,-70 10,-24 24,-43 43,-58 19,-15 41,-23 68,-23 24,0 43,3 58,8 15,5 31,13 48,23 10,7 19,12 27,15 8,3 16,4 25,4 9,0 16,-2 20,-6 4,-4 9,-11 13,-19 4,-6 7,-11 10,-14 3,-4 7,-5 11,-5l85 0c7,0 12,2 16,6 3,4 5,9 5,15 0,23 -5,46 -16,69 -11,24 -26,43 -44,59 -19,15 -41,23 -64,23 -24,0 -43,-3 -58,-8 -15,-5 -31,-13 -48,-23 -10,-7 -20,-12 -27,-15 -8,-3 -16,-4 -25,-4zm1371 89c71,0 131,13 183,40 51,27 90,63 118,108 28,46 43,97 46,153 2,21 2,54 2,100 0,46 0,78 -2,98 -3,57 -18,108 -46,153 -28,46 -67,82 -118,109 -52,26 -112,40 -183,40 -70,0 -131,-14 -182,-40 -51,-27 -91,-63 -119,-109 -27,-45 -43,-96 -46,-153 -1,-40 -2,-72 -2,-98 0,-25 1,-58 2,-100 3,-56 19,-107 46,-153 28,-45 68,-81 119,-108 51,-27 112,-40 182,-40zm141 307c-3,-39 -17,-71 -40,-94 -23,-23 -57,-35 -101,-35 -44,0 -77,12 -100,35 -24,23 -37,55 -41,94 -2,24 -3,55 -3,92 0,36 1,68 3,95 4,39 17,70 41,94 23,23 56,35 100,35 44,0 78,-12 101,-35 23,-24 37,-55 40,-94 3,-27 4,-59 4,-95 0,-37 -1,-68 -4,-92zm1464 -88c0,7 -2,12 -7,17 -5,5 -10,7 -16,7l-146 0c-10,0 -18,-1 -24,-3 -6,-3 -13,-8 -20,-14 -2,-2 -6,-7 -15,-15 -8,-9 -21,-16 -38,-23 -17,-7 -38,-10 -61,-10 -31,0 -58,4 -78,13 -20,8 -31,23 -31,44 0,14 7,26 19,35 13,8 32,16 59,22 26,7 72,17 137,30 84,17 145,44 185,80 39,37 59,89 59,156 0,49 -15,92 -44,129 -30,36 -70,65 -123,84 -52,20 -111,30 -177,30 -64,0 -122,-12 -174,-34 -51,-22 -92,-51 -122,-86 -29,-36 -45,-73 -47,-111 0,-6 3,-12 8,-17 5,-5 10,-7 16,-7l145 0c17,0 31,5 43,16 2,2 8,8 18,19 9,11 24,20 43,29 20,8 43,13 70,13 92,0 138,-20 138,-59 0,-13 -7,-23 -20,-32 -13,-8 -31,-16 -55,-22 -23,-6 -61,-14 -113,-25l-50 -10c-76,-17 -131,-44 -167,-82 -36,-38 -53,-89 -53,-153 0,-43 13,-83 39,-119 26,-37 62,-66 110,-88 48,-22 103,-33 165,-33 60,0 115,11 165,34 50,22 89,51 117,85 29,34 44,67 45,100z"/>
  </g>
  <path class="fillColor str0" d="M4257 2784l11946 0c28,0 51,23 51,52l0 0c0,28 -23,51 -51,51l-11946 0c-29,0 -52,-23 -52,-51l0 0c0,-29 23,-52 52,-52z"/>
  <g>
   <path class="fillColor" d="M16615 2932c16,-1 24,-3 36,4l-28 7c-46,3 -77,-8 -114,-24 -70,-32 -89,-18 -114,-30 12,-57 131,46 220,43zm-323 -61c0,14 -4,17 -19,15 -32,-3 -11,-30 19,-15zm628 117c-8,-13 -9,-34 -14,-50 -9,-33 -23,-62 -42,-88 -16,-22 -18,-9 -26,-36 48,19 102,95 99,170l-17 4zm-325 -428c-80,-2 -170,-42 -146,45 44,14 96,3 146,9l1 49c-75,6 -81,-15 -78,39 9,7 17,11 27,19 1,24 -3,38 -47,42 -27,2 -66,0 -95,0 -19,-12 -26,-35 -60,-34 -33,1 -44,18 -51,46l-42 2c-7,26 -7,93 0,117l42 4c11,24 15,38 46,40 41,4 43,-15 60,-34 96,-2 149,70 244,47 40,-10 70,-35 112,-38 54,-4 56,34 74,78 40,10 82,14 119,0 12,-97 -63,-198 -187,-213 -23,-3 -32,-11 -44,-20 -18,-13 -29,-17 -32,-38 17,-21 25,2 28,-29 4,-35 -30,-27 -79,-27l-2 -52c48,1 105,5 148,-4 12,-25 13,-28 5,-49 -59,-19 -106,-2 -153,3 -1,-25 -4,-32 -30,-32l-6 30z"/>
   <path class="fillColor" d="M16859 3135c-5,-23 11,-43 20,-57 -2,12 -6,20 -8,32 -2,15 4,27 -12,25zm33 -110c-9,9 -4,15 -17,39 -7,14 -15,23 -21,35 -7,14 -11,31 -3,46 35,62 127,-8 52,-104 -5,-7 -6,-6 -11,-16z"/>
  </g>
  <path class="fillColor" d="M16160 2751l0 0c17,0 31,14 31,31l0 103c0,17 -14,30 -31,30l0 0c-17,0 -31,-13 -31,-30l0 -103c0,-17 14,-31 31,-31z"/>
  <path class="fillColor" d="M16221 2751l0 0c17,0 31,14 31,31l0 103c0,17 -14,30 -31,30l0 0c-16,0 -30,-13 -30,-30l0 -103c0,-17 14,-31 30,-31z"/>
 </g>
</svg>
