<?xml version="1.0" encoding="UTF-8"?>
<!DOCTYPE svg PUBLIC "-//W3C//DTD SVG 1.1//EN" "http://www.w3.org/Graphics/SVG/1.1/DTD/svg11.dtd">
<!-- Creator: CorelDRAW X7 -->
<svg xmlns="http://www.w3.org/2000/svg" xml:space="preserve" width="57.8201mm" height="45.3743mm" version="1.1" style="shape-rendering:geometricPrecision; text-rendering:geometricPrecision; image-rendering:optimizeQuality; fill-rule:evenodd; clip-rule:evenodd"
viewBox="0 0 974 764"
 xmlns:xlink="http://www.w3.org/1999/xlink">
 <defs>
  <style type="text/css">
   <![CDATA[
    .fil9 {fill:none}
    .fil7 {fill:#23A9DA}
    .fil0 {fill:#2B8AC6}
    .fil6 {fill:#6B6B6B}
    .fil8 {fill:#83D2F1}
    .fil2 {fill:#8B8989}
    .fil4 {fill:#B2A59A}
    .fil3 {fill:#C6C5C2}
    .fil5 {fill:#FCE7D7}
    .fil1 {fill:white}
   ]]>
  </style>
   <clipPath id="id0">
    <path d="M360 625c129,0 234,-104 234,-234 0,-129 -105,-234 -234,-234 -129,0 -234,105 -234,234 0,130 105,234 234,234z"/>
   </clipPath>
 </defs>
 <g id="Camada_x0020_1">
  <metadata id="CorelCorpID_0Corel-Layer"/>
  <path class="fil0" d="M360 74c175,0 317,142 317,317 0,43 -8,83 -24,121l81 41c14,-9 32,-11 48,-3l166 84c23,11 33,40 21,63l0 0c-12,24 -41,33 -64,21l-166 -83c-16,-9 -25,-25 -26,-42l-80 -40c-56,92 -157,154 -273,154 -175,0 -316,-141 -316,-316 0,-175 141,-317 316,-317zm0 72c135,0 245,110 245,245 0,135 -110,244 -245,244 -135,0 -244,-109 -244,-244 0,-135 109,-245 244,-245z"/>
  <path class="fil1" d="M782 629c17,11 53,29 76,40 23,12 34,17 40,19 6,1 9,-1 -13,-13 -22,-13 -68,-36 -92,-47 -24,-12 -26,-12 -28,-11 -1,0 -1,2 17,12z"/>
  <g id="_2018741626880">
   <path class="fil2" d="M74 546l-24 1c-4,3 -2,-1 -1,3l-1 1 30 2c-1,-2 -3,-5 -4,-7zm72 90l0 56c0,31 -8,5 -7,45 0,17 1,16 -5,22l29 5 56 0 0 -54 -16 -1 0 -33c-21,-12 -40,-25 -57,-40zm524 -349c1,-8 2,-16 2,-23l2 -9 16 0 0 -39 -16 -4 0 -157 16 0 0 -55 -83 0c0,9 0,19 0,28 1,15 5,13 -2,19 0,0 1,0 1,1l4 1c0,0 1,1 2,1 2,1 2,0 4,2l-57 2c-8,0 -14,0 -22,0l-20 2c7,7 51,8 60,8 12,1 33,4 42,8 -5,23 -2,84 -2,115 0,1 0,2 0,2 23,29 41,62 53,98z"/>
   <path class="fil3" d="M44 547l29 -3c-10,-19 -18,-39 -25,-60 -1,6 -1,12 -2,19l-17 3 0 40 15 1z"/>
   <path class="fil3" d="M577 64c-9,0 -53,-1 -60,-8l20 -2c8,0 14,0 22,0 4,-11 -4,-6 1,-16 4,-8 4,-1 13,-6 9,-5 9,-18 -10,-19 5,-4 10,-2 4,-4 -2,-5 0,-2 -2,-9l-65 0 1 52 14 4c2,9 3,27 3,49 8,4 15,9 23,14 -2,-18 -4,-37 3,-46 9,0 3,0 11,4 1,10 3,32 3,54 12,9 22,18 32,28 0,-30 1,-59 3,-90 -7,-1 -11,-2 -16,-5z"/>
   <path class="fil3" d="M77 699c-5,-11 -3,-58 -5,-75 -3,-24 -10,-50 -2,-64l13 2 -1 26c-1,39 20,120 -5,111zm23 65l-19 -3c0,-11 3,-15 -5,-17 16,-1 19,1 30,-5 2,-11 4,-12 -6,-16 -6,-3 -14,-1 -19,0 4,-13 3,3 5,-12l29 -3 1 -15c-1,-10 -2,-54 -2,-89 -13,-16 -25,-33 -36,-51l-30 -2 1 -1 -4 -1 0 161c-18,0 -16,-2 -16,18 0,11 0,23 0,36l71 0z"/>
   <path class="fil4" d="M44 547l1 2 4 1 -1 1 1 -1c-1,-4 -3,0 1,-3l24 -1c0,-1 0,-1 -1,-2l-29 3z"/>
   <path class="fil4" d="M100 764l63 0 -29 -5c6,-6 5,-5 5,-22 -1,-40 7,-14 7,-45l0 -56c-11,-10 -22,-21 -32,-32 0,35 1,79 2,89l-1 15 -29 3c-2,15 -1,-1 -5,12 5,-1 13,-3 19,0 10,4 8,5 6,16 -11,6 -14,4 -30,5 8,2 5,6 5,17l19 3z"/>
   <path class="fil4" d="M617 189c0,0 0,-1 0,-2 0,-31 -3,-92 2,-115 -9,-4 -30,-7 -42,-8 5,3 9,4 16,5 -2,31 -3,60 -3,90 10,10 19,20 27,30z"/>
   <path class="fil4" d="M559 54l57 -2c-2,-2 -2,-1 -4,-2 -1,0 -2,-1 -2,-1l-4 -1c0,-1 -1,-1 -1,-1 7,-6 3,-4 2,-19 0,-9 0,-19 0,-28l-42 0c2,7 0,4 2,9 6,2 1,0 -4,4 19,1 19,14 10,19 -9,5 -9,-2 -13,6 -5,10 3,5 -1,16z"/>
   <path class="fil5" d="M558 131c0,-22 -2,-44 -3,-54 -8,-4 -2,-4 -11,-4 -7,9 -5,28 -3,46 6,4 12,8 17,12z"/>
   <path class="fil5" d="M77 699c25,9 4,-72 5,-111l1 -26 -13 -2c-8,14 -1,40 2,64 2,17 0,64 5,75z"/>
   <path class="fil3" d="M672 264l3 -6c3,0 6,0 10,-1 3,0 4,-1 5,-2l-16 0 -2 9z"/>
   <path class="fil6" d="M0 240c0,0 2,0 2,-1 2,-3 -2,-1 -2,1z"/>
  </g>
  <g>
  </g>
  <g style="clip-path:url(#id0)">
   <g>
    <g id="_2018741628512">
     <path class="fil2" d="M527 373l-12 -98 -6 1 0 6c2,11 2,94 -5,101 -3,4 -27,6 -37,1 -6,-3 2,12 -7,-3l-4 20c-27,5 -114,0 -154,0l-8 -38 -7 -80c-16,-8 -4,-2 -8,2l-2 110c-8,3 5,1 -7,-1l-42 -2 -3 33c-8,6 -2,-2 -14,11 0,1 -1,1 -1,2 -1,0 -1,1 -2,1l-42 41c-7,7 -10,8 -17,14 -12,11 -22,30 -39,34 -8,3 -4,0 -13,4 0,13 -3,38 3,46l-118 5c-4,3 -2,-2 -1,3l-1 2 88 5 33 7 0 161c0,39 -10,7 -9,57 0,20 1,19 -6,26l36 7 69 -1 0 -66 -20 -1 0 -200 20 -4 0 -47c-10,-5 -9,0 -17,-6 5,-28 20,-43 49,-49 9,22 -10,17 55,18l0 -21 80 -1 5 -29 2 3 4 -29 1 38 4 3 0 14 81 0 3 21 49 0 3 -20c37,-6 64,-14 94,-29 72,-36 142,-119 146,-212l2 -10 20 0 0 -49 -20 -4 1 -194 19 0 0 -68 -102 1c0,11 -1,22 0,33 1,19 6,17 -3,24 0,0 1,1 2,1l4 2c1,0 2,0 2,0 3,1 3,1 6,3l-71 3c-10,-1 -17,0 -27,0l-24 3c8,7 62,9 74,10 15,1 40,4 51,9 -5,28 -2,103 -2,142 0,20 4,31 -12,35 0,37 -3,40 6,48l-119 3c0,10 -12,5 26,9 34,4 64,13 89,17 28,8 40,19 40,18 0,0 1,1 2,1l-30 18c-24,10 -4,1 -16,15l-36 28c-4,3 -5,5 -6,7l-68 50c-12,7 -5,-4 -14,14 0,1 -3,5 -4,6 -9,-8 -12,-20 -13,-35z"/>
     <path class="fil3" d="M97 364c19,-10 22,8 4,25 -59,55 -31,116 -65,114 -17,-1 -22,-19 -19,-38 4,-21 6,-29 16,-43 16,-25 38,-45 64,-58zm30 -17c13,-18 33,-43 63,-30 -1,18 -14,21 -28,28 -19,9 -20,14 -35,2zm-152 235l47 -3 -15 -16c18,-1 48,2 46,-13 -6,-10 2,-6 -14,-9 -9,-2 -15,3 -36,-3l-5 -2c21,-11 58,-1 78,-14 40,-27 35,-35 62,-55l34 -34c9,-7 15,-15 25,-22l11 -8c0,-1 1,-1 1,-2l5 -4c0,0 1,9 2,1 0,-1 1,0 1,0 1,-9 0,-5 2,-10 1,-1 2,-3 2,-4 6,-16 6,-35 6,-52 6,-3 -3,-3 3,2 15,12 -9,-2 4,4 0,-3 0,-6 1,-8 2,-9 -1,-2 4,-5 -3,10 -1,23 2,31l12 0c11,-17 3,-33 8,-49 9,1 2,7 11,4 7,-22 3,-8 6,-33l-1 -17 -51 0 -1 19c-42,6 -66,11 -99,27 -79,40 -140,120 -149,221l-20 4 0 49 18 1z"/>
     <path class="fil3" d="M633 -12c-12,-1 -66,-3 -74,-10l24 -3c10,0 17,-1 27,0 6,-14 -5,-8 1,-20 6,-10 6,-1 17,-8 11,-6 10,-21 -13,-23 6,-5 13,-3 6,-5 -4,-6 -1,-2 -3,-11l-80 1 0 63 18 6c7,27 2,153 2,190l-8 3c-10,3 -11,1 -12,6l0 42c10,16 14,-8 15,14 0,11 -11,34 -38,42l12 98c4,-7 3,-7 3,-17l5 4c4,2 1,1 6,1 3,-10 7,-11 13,-17 19,-20 34,-25 39,-29l62 -48c2,-3 1,-2 3,-5 7,-12 -2,3 3,-7l20 3c-13,-5 -4,-2 -9,-7 -25,-4 -55,-13 -89,-17 -38,-4 -26,1 -26,-9l68 -5c-12,-1 -9,1 -18,-4l2 -8c1,-5 27,-1 25,-16 -1,-8 -8,-6 -16,-11l-8 -7c0,0 8,1 9,1l29 -5c0,-62 1,-117 4,-176 -8,-2 -13,-4 -19,-6zm-43 94c0,-23 -11,-68 2,-84 11,0 4,0 13,5 3,28 11,138 -2,155l-10 0c-11,-15 -3,-45 -3,-76z"/>
     <path class="fil3" d="M16 770c-6,-14 -4,-71 -6,-92 -4,-30 -13,-61 -3,-79l16 2 -1 32c-1,49 25,148 -6,137zm29 81l-24 -4c0,-14 4,-18 -6,-21 19,-1 22,1 37,-7 2,-12 4,-15 -8,-20 -7,-3 -17,-1 -23,1 5,-16 4,4 5,-14l37 -4 0 -19c-1,-20 -4,-154 3,-166l2 -4 -88 -5 1 -2 -5 0 1 197c-23,1 -21,-2 -20,23 0,14 0,28 0,44l88 1z"/>
     <path class="fil3" d="M286 279l1 4 7 80c0,-1 1,-2 2,-2 0,1 2,-2 4,-2 12,-5 139,-1 155,-2 3,-41 -1,-39 6,-39 2,0 5,-6 6,4 3,15 -3,18 4,33 26,6 16,-14 20,-51l3 9c9,-5 -6,-3 6,3 7,4 -4,5 4,1l5 -35 0 -6 -1 -15 -50 0 -6 18 -166 0z"/>
     <path class="fil4" d="M-25 582l1 4 5 0 -1 2 1 -2c-1,-5 -3,0 1,-3l118 -5c-6,-8 -3,-33 -3,-46 9,-4 5,-1 13,-4 17,-4 27,-23 39,-34 7,-6 10,-7 17,-14l42 -41c1,0 1,-1 2,-1 0,-1 1,-1 1,-2 12,-13 6,-5 14,-11l3 -33 42 2c12,2 -1,4 7,1l2 -110c4,-4 -8,-10 8,-2l-1 -4 -8 -1c-3,25 1,11 -6,33 -9,3 -2,-3 -11,-4 -5,16 3,32 -8,49l-12 0c-3,-8 -5,-21 -2,-31 -5,3 -2,-4 -4,5 -1,2 -1,5 -1,8 -13,-6 11,8 -4,-4 -6,-5 3,-5 -3,-2 0,17 0,36 -6,52 0,1 -1,3 -2,4 -2,5 -1,1 -2,10 0,0 -1,-1 -1,0 -1,8 -2,-1 -2,-1l-5 4c0,1 -1,1 -1,2l-11 8c-10,7 -16,15 -25,22l-34 34c-27,20 -22,28 -62,55 -20,13 -57,3 -78,14l5 2c21,6 27,1 36,3 16,3 8,-1 14,9 2,15 -28,12 -46,13l15 16 -47 3z"/>
     <path class="fil4" d="M45 851l77 0 -36 -7c7,-7 6,-6 6,-26 -1,-50 9,-18 9,-57l0 -161 -33 -7 -2 4c-7,12 -4,146 -3,166l0 19 -37 4c-1,18 0,-2 -5,14 6,-2 16,-4 23,-1 12,5 10,8 8,20 -15,8 -18,6 -37,7 10,3 6,7 6,21l24 4z"/>
     <path class="fil4" d="M294 363l8 38c40,0 127,5 154,0l4 -20c9,15 1,0 7,3 10,5 34,3 37,-1 7,-7 7,-90 5,-101l-5 35c-8,4 3,3 -4,-1 -12,-6 3,-8 -6,-3l-3 -9c-4,37 6,57 -20,51 -7,-15 -1,-18 -4,-33 -1,-10 -4,-4 -6,-4 -7,0 -3,-2 -6,39 -16,1 -143,-3 -155,2 -2,0 -4,3 -4,2 -1,0 -2,1 -2,2z"/>
     <path class="fil4" d="M557 225l119 -3c-9,-8 -6,-11 -6,-48 16,-4 12,-15 12,-35 0,-39 -3,-114 2,-142 -11,-5 -36,-8 -51,-9 6,2 11,4 19,6 -3,59 -4,114 -4,176l-29 5c-1,0 -9,-1 -9,-1l8 7c8,5 15,3 16,11 2,15 -24,11 -25,16l-2 8c9,5 6,3 18,4l-68 5z"/>
     <path class="fil4" d="M527 373c1,15 4,27 13,35 1,-1 4,-5 4,-6 9,-18 2,-7 14,-14l68 -50c1,-2 2,-4 6,-7l36 -28c12,-14 -8,-5 16,-15l30 -18c-1,0 -2,-1 -2,-1 0,1 -12,-10 -40,-18 5,5 -4,2 9,7l-20 -3c-5,10 4,-5 -3,7 -2,3 -1,2 -3,5l-62 48c-5,4 -20,9 -39,29 -6,6 -10,7 -13,17 -5,0 -2,1 -6,-1l-5 -4c0,10 1,10 -3,17z"/>
     <path class="fil5" d="M97 364c-26,13 -48,33 -64,58 -10,14 -12,22 -16,43 -3,19 2,37 19,38 34,2 6,-59 65,-114 18,-17 15,-35 -4,-25z"/>
     <path class="fil4" d="M610 -25l71 -3c-3,-2 -3,-2 -6,-3 0,0 -1,0 -2,0l-4 -2c-1,0 -2,-1 -2,-1 9,-7 4,-5 3,-24 -1,-11 0,-22 0,-33l-52 -1c2,9 -1,5 3,11 7,2 0,0 -6,5 23,2 24,17 13,23 -11,7 -11,-2 -17,8 -6,12 5,6 -1,20z"/>
     <path class="fil5" d="M590 82c0,31 -8,61 3,76l10 0c13,-17 5,-127 2,-155 -9,-5 -2,-5 -13,-5 -13,16 -2,61 -2,84z"/>
     <path class="fil5" d="M16 770c31,11 5,-88 6,-137l1 -32 -16 -2c-10,18 -1,49 3,79 2,21 0,78 6,92z"/>
     <path class="fil5" d="M127 347c15,12 16,7 35,-2 14,-7 27,-10 28,-28 -30,-13 -50,12 -63,30z"/>
     <path class="fil3" d="M750 233l4 -7c3,0 7,0 11,0 5,-1 6,-2 7,-3l-20 0 -2 10z"/>
     <path class="fil6" d="M-79 204c0,1 2,0 3,-1 2,-3 -3,-1 -3,1z"/>
    </g>
    <g id="_2018741635120">
     <path class="fil7" d="M373 535c1,0 1,0 1,0l2 -2c1,0 2,-1 3,-2l0 0c2,-2 2,-3 3,-5 0,0 0,-1 0,-1 0,0 0,0 0,1 0,2 -1,5 -3,6l0 1c-1,1 -3,2 -4,2 -1,1 -1,0 -2,0zm-5 -41c0,0 0,0 0,0l-1 -2c-1,-2 -1,-4 -2,-7 0,0 0,-2 0,-2 0,3 0,7 -1,9 -1,6 -2,10 -3,15 -1,1 -1,2 -1,2l-1 2c0,1 -1,3 -1,4 -1,1 -1,1 -1,2l-1 2c0,0 0,1 -1,2 -1,3 0,6 1,9 0,1 1,1 1,1 0,1 0,1 1,2 1,1 1,1 2,2 0,1 2,2 3,2 1,1 2,1 4,1 0,0 0,0 0,0 4,1 7,0 10,-2 0,0 0,0 0,0l1 -1c0,0 0,0 1,0 0,0 0,0 0,0 1,-1 2,-2 3,-3 0,0 0,0 0,0 0,-1 1,-2 1,-3 0,-1 1,-3 1,-4 0,-1 0,-2 0,-4 -1,0 -1,-1 -1,-2 0,0 0,0 0,-1 -2,-2 -2,-3 -3,-4l-2 -2c0,0 0,0 0,0l-1 -1c0,-1 0,-1 0,-1 -1,-1 -1,-2 -2,-3 -1,-1 -2,-2 -2,-4l-1 0c-1,-2 -2,-5 -3,-6l0 -1c0,0 0,0 0,-1l-1 -1z"/>
     <path class="fil7" d="M400 510c0,0 1,-1 1,-1 2,-2 1,-3 1,-5l0 0c0,0 1,0 1,1 0,1 -1,2 -1,3 0,0 0,1 0,1 -1,0 -1,1 -2,1zm-30 -28c0,-1 0,-1 0,-1 0,1 0,2 1,2 0,1 0,1 0,2l2 3c1,2 3,7 4,9 2,4 5,8 8,12 0,0 1,1 2,1 0,1 0,1 0,1 0,0 1,0 1,1l2 1 2 1c0,0 1,0 1,0 0,0 1,0 1,0 1,0 2,0 3,-1 2,0 2,0 3,-1 0,0 0,0 0,0 0,0 0,0 0,0l2 -2c0,0 0,0 0,-1 1,0 1,-2 1,-3 1,-2 1,-3 0,-6 -1,-1 -2,-1 -2,-2l-1 -1c0,0 0,0 0,0l-1 0c0,-1 0,-1 -1,-1 0,0 -1,0 -1,0l-3 -1c0,0 -1,0 -1,-1 -3,0 -8,-2 -10,-3l-2 -1c0,0 0,0 0,0 -1,-1 -2,-1 -3,-2 -1,0 -2,-1 -3,-2 0,0 0,0 -1,0 0,-1 0,-1 0,-1 0,0 0,0 0,0l0 0c-1,0 -1,0 -1,0 0,0 0,0 0,0 0,0 0,0 0,0l-2 -2c0,0 0,0 0,-1 0,0 0,0 -1,0l0 0z"/>
     <path class="fil7" d="M340 514c0,1 0,0 0,1 3,1 4,-1 5,0 0,1 -2,1 -3,1 -2,-1 -3,-1 -4,-2 0,0 0,0 0,0 0,-1 0,0 0,0l2 0zm22 -31c-2,4 -5,7 -8,10 -1,0 -1,0 -2,0 0,1 0,1 -1,1 0,0 0,0 0,0l-2 1 -3 1c0,0 -1,0 -1,0l-1 1c-2,0 -2,0 -2,0 -3,0 -4,1 -6,2 -1,1 -1,2 -2,3 -2,4 -2,8 1,11l2 2c0,0 1,1 2,1 2,1 3,1 4,0l2 0 2 -1c0,0 0,0 0,0 0,0 0,0 0,0l1 0c0,0 0,0 0,0l1 -1 3 -3c0,-1 1,-2 1,-3 1,-1 3,-4 3,-5 0,0 0,-1 0,-1 1,-1 2,-3 2,-5 1,-2 2,-4 2,-6l0 -1c0,0 0,0 1,0l0 -1c0,-1 0,-4 1,-5 0,0 0,0 0,-1z"/>
     <path class="fil8" d="M373 535c1,0 1,1 2,0 1,0 3,-1 4,-2l0 -1c2,-1 3,-4 3,-6 0,-1 0,-1 0,-1 0,0 0,1 0,1 -1,2 -1,3 -3,5l0 0c-1,1 -2,2 -3,2l-2 2c0,0 0,0 -1,0z"/>
     <path class="fil8" d="M340 514l-2 0c0,0 0,-1 0,0 0,0 0,0 0,0 1,1 2,1 4,2 1,0 3,0 3,-1 -1,-1 -2,1 -5,0 0,-1 0,0 0,-1z"/>
     <path class="fil8" d="M400 510c1,0 1,-1 2,-1 0,0 0,-1 0,-1 0,-1 1,-2 1,-3 0,-1 -1,-1 -1,-1l0 0c0,2 1,3 -1,5 0,0 -1,1 -1,1z"/>
    </g>
   </g>
  </g>
  <path class="fil9" d="M360 625c129,0 234,-104 234,-234 0,-129 -105,-234 -234,-234 -129,0 -234,105 -234,234 0,130 105,234 234,234z"/>
 </g>
</svg>
